<svg id="Layer_1" data-name="Layer 1" xmlns="http://www.w3.org/2000/svg" viewBox="0 0 968.94 1280"><defs><style>.cls-1,.cls-2{fill:#66f;}.cls-2{opacity:0.7;}.cls-3{fill:#f8f8ff;}.cls-4,.cls-5{fill:#fff;}.cls-5{font-size:75.01px;font-family:Poppins-Regular, Poppins;letter-spacing:0.06em;}.cls-6{fill:none;}</style></defs><path class="cls-1" d="M695.23,247.1q-7.23-5.17-14.83-9.91C612.89,195.25,517.94,184.76,432,196.08a582.58,582.58,0,0,0-111.57,26.58C81.32,304.11,41.74,498.47-22.37,568.73S-182.73,754.08-124.11,898.3s230.65,236.48,474.32,155.25,227.94-179.65,350.58-264C782,733.7,818.85,633.6,825.49,551.34,834.54,439.23,789.53,314.78,695.23,247.1Z" transform="translate(142.31)"/><path class="cls-2" d="M695.23,247.1q-7.23-5.17-14.83-9.91C612.89,195.25,517.94,184.76,432,196.08a582.58,582.58,0,0,0-111.57,26.58C81.32,304.11,41.74,498.47-22.37,568.73S-182.73,754.08-124.11,898.3s230.65,236.48,474.32,155.25,227.94-179.65,350.58-264C782,733.7,818.85,633.6,825.49,551.34,834.54,439.23,789.53,314.78,695.23,247.1Z" transform="translate(142.31)"/><path class="cls-3" d="M448.57,503.84a9.64,9.64,0,0,0-7.33,3.43,10.52,10.52,0,0,0-2.42,8c1.81,16.44,1.16,46.65-8.32,57.72a10.82,10.82,0,0,1-8.87,4.1c-3.26,0-4.46-.67-4.61-.85s-1-1.38-.83-7.16c.2-5.4,1.34-12.27,2.67-20.22,2.06-12.35,4.39-26.34,4.39-41.49,0-1.45.06-3.41.12-5.67.57-20.41,1.9-68.2-26.74-98.91-16.76-18-40.87-27.09-71.65-27.09a9.76,9.76,0,0,0-8.5,5.11,10.6,10.6,0,0,0,0,10.22c1.2,2.22,29.25,55.72-30.56,93.63-23.72,15-59,54.45-59,101.44a140.7,140.7,0,0,0,39,97.83A135.78,135.78,0,0,0,289,703.16a69.68,69.68,0,0,1,12.37-51.77L292.68,631a30.57,30.57,0,0,1,0-24,28.32,28.32,0,0,1,16.89-15.8,141.87,141.87,0,0,1,43.64-7.34h1.43a141.94,141.94,0,0,1,43.65,7.34A28.32,28.32,0,0,1,415.21,607a30.57,30.57,0,0,1,0,24l-8.72,20.44a70.12,70.12,0,0,1,13.23,41.22,71.5,71.5,0,0,1-2.41,18.17,135.22,135.22,0,0,0,36.81-27.46,141.47,141.47,0,0,0,28.48-44.1,139.85,139.85,0,0,0,10.47-53.14C493.1,547.26,474.06,503.84,448.57,503.84Z" transform="translate(142.31)"/><path class="cls-3" d="M393.06,608.21a121.06,121.06,0,0,0-78.21,0,10.79,10.79,0,0,0-6.48,6.08,12,12,0,0,0,0,9.4l6,14.15a63.69,63.69,0,0,1,79.12,0l6-14.16a12,12,0,0,0,0-9.4A10.74,10.74,0,0,0,393.06,608.21Z" transform="translate(142.31)"/><path class="cls-4" d="M164.12,881.17a9.9,9.9,0,0,1-2.57-1,11.23,11.23,0,0,1-2.24-1.7l1.87-2.65a8,8,0,0,0,2.68,1.83,8.15,8.15,0,0,0,3.18.61,5.74,5.74,0,0,0,3.59-1,3.36,3.36,0,0,0,1.28-2.81h0a3.35,3.35,0,0,0-.58-2.05,3.58,3.58,0,0,0-1.5-1.12,15.8,15.8,0,0,0-2.37-.67l-.09,0h-.1l-.22-.05a20.94,20.94,0,0,1-3.48-1,5,5,0,0,1-2.29-1.95,7.17,7.17,0,0,1-.95-4v0a8,8,0,0,1,.88-3.91,5.89,5.89,0,0,1,2.59-2.47,9.15,9.15,0,0,1,4.09-.85,9,9,0,0,1,2.25.29,9.78,9.78,0,0,1,2.18.86,12,12,0,0,1,2.12,1.43l-1.7,2.75a9.54,9.54,0,0,0-2.42-1.55,6.08,6.08,0,0,0-2.43-.52,5.14,5.14,0,0,0-3.39,1,3.51,3.51,0,0,0-1.21,2.86v0a3,3,0,0,0,.62,2,3.7,3.7,0,0,0,1.55,1.07,19.7,19.7,0,0,0,2.59.73l.11,0,.11,0,.16,0,.16,0a15.71,15.71,0,0,1,3.24,1.08,5.3,5.3,0,0,1,2.16,2,7.11,7.11,0,0,1,.88,3.82v0a7.58,7.58,0,0,1-.93,3.86,5.92,5.92,0,0,1-2.67,2.44,9.73,9.73,0,0,1-4.23.84A12,12,0,0,1,164.12,881.17Z" transform="translate(142.31)"/><path class="cls-4" d="M179.45,863.65h6.86v3.12h-6.86Zm2.43,16.51a5.89,5.89,0,0,1-.86-3.48V858.52h3v18.19a1.91,1.91,0,0,0,.22,1,.73.73,0,0,0,.65.35h1.43v3.29h-1.73A3.1,3.1,0,0,1,181.88,880.16Z" transform="translate(142.31)"/><path class="cls-4" d="M192.88,880.16a6.7,6.7,0,0,1-.12-8,5.18,5.18,0,0,1,3.86-1.31h4.32l.21,2.78h-4.52a2.33,2.33,0,0,0-1.75.6,2.58,2.58,0,0,0-.58,1.85,2.45,2.45,0,0,0,.77,2,3.57,3.57,0,0,0,2.34.65,6,6,0,0,0,2.56-.43,1.39,1.39,0,0,0,.84-1.32l.31,2.47a3.75,3.75,0,0,1-2.32,1.86,5.71,5.71,0,0,1-1.71.23A5.84,5.84,0,0,1,192.88,880.16Zm7.93-10.07a4.11,4.11,0,0,0-.8-2.69,2.77,2.77,0,0,0-2.26-.95,5,5,0,0,0-1.79.32,4.84,4.84,0,0,0-1.54.9l-2.19-1.73a5.84,5.84,0,0,1,2.28-1.88,7.23,7.23,0,0,1,3.15-.67,6.47,6.47,0,0,1,3.24.77,5,5,0,0,1,2,2.24,8.13,8.13,0,0,1,.7,3.54v11.32h-2.84Z" transform="translate(142.31)"/><path class="cls-4" d="M208,863.65H211l4.67,15.3L214,882.7Zm13.47,0-6.48,21.73a5.57,5.57,0,0,1-.92,1.91,3.21,3.21,0,0,1-1.41,1,6.12,6.12,0,0,1-2.05.3H210v-3.32h.6a2.05,2.05,0,0,0,1.32-.39,3.07,3.07,0,0,0,.86-1.34l5.63-19.9Z" transform="translate(142.31)"/><path class="cls-4" d="M235.72,856.59h3v3.46h-3Zm0,7.06h3v17.61h-3Z" transform="translate(142.31)"/><path class="cls-4" d="M245.06,863.65h3v17.61h-3Zm9.23,6.93a4.47,4.47,0,0,0-.83-2.88,3.25,3.25,0,0,0-4.61-.12,3.64,3.64,0,0,0-.8,2.53l-.31-3.39a6,6,0,0,1,1.84-2.46,4.05,4.05,0,0,1,2.51-.87,4.47,4.47,0,0,1,3.84,1.88,9,9,0,0,1,1.35,5.3v10.69h-3Z" transform="translate(142.31)"/><path class="cls-4" d="M276.34,881.21a8.49,8.49,0,0,1-4.09-2.45l1.77-2.52a9.78,9.78,0,0,0,2.45,1.62,5.73,5.73,0,0,0,2.4.55,4.52,4.52,0,0,0,2.66-.64,2.2,2.2,0,0,0,.89-1.91,1.61,1.61,0,0,0-.48-1.27,2.67,2.67,0,0,0-1.21-.57,19.48,19.48,0,0,0-2-.26h-.25a1.9,1.9,0,0,1-.25,0H278a10.59,10.59,0,0,1-2.51-.5,3.52,3.52,0,0,1-1.71-1.37,5.11,5.11,0,0,1-.68-2.87,6.53,6.53,0,0,1,.66-3.1,4.19,4.19,0,0,1,2-1.86,7.64,7.64,0,0,1,3.26-.62,9.81,9.81,0,0,1,2.27.26,8.92,8.92,0,0,1,2.06.75,10.54,10.54,0,0,1,1.89,1.26l-1.8,2.53a9.94,9.94,0,0,0-2.25-1.27,6.1,6.1,0,0,0-2.17-.42,3.65,3.65,0,0,0-2.28.6,2.15,2.15,0,0,0-.76,1.81,1.28,1.28,0,0,0,.43,1.06,2.32,2.32,0,0,0,1.09.48,16.93,16.93,0,0,0,1.88.2l.18,0,.2,0h.17a11.21,11.21,0,0,1,2.72.5,3.67,3.67,0,0,1,1.89,1.47,5.67,5.67,0,0,1,.76,3.19,6.44,6.44,0,0,1-.7,3.15,4.37,4.37,0,0,1-2.12,1.87,8.8,8.8,0,0,1-3.56.63A10.26,10.26,0,0,1,276.34,881.21Z" transform="translate(142.31)"/><path class="cls-4" d="M290.86,856.59h3v24.67h-3Zm9.24,14a4.41,4.41,0,0,0-.84-2.88,2.86,2.86,0,0,0-2.34-1,2.93,2.93,0,0,0-2.27.88,3.61,3.61,0,0,0-.8,2.5l-.31-3.39a6.08,6.08,0,0,1,1.84-2.42,4.11,4.11,0,0,1,2.52-.86,4.45,4.45,0,0,1,3.83,1.88,8.94,8.94,0,0,1,1.36,5.3v10.69h-3Z" transform="translate(142.31)"/><path class="cls-4" d="M310.09,880.16a6.7,6.7,0,0,1-.12-8,5.18,5.18,0,0,1,3.86-1.31h4.32l.21,2.78h-4.52a2.33,2.33,0,0,0-1.75.6,2.63,2.63,0,0,0-.58,1.85,2.45,2.45,0,0,0,.77,2,3.61,3.61,0,0,0,2.34.65,5.94,5.94,0,0,0,2.56-.43A1.39,1.39,0,0,0,318,877l.31,2.47a3.91,3.91,0,0,1-1,1.18,4.09,4.09,0,0,1-1.35.68,5.66,5.66,0,0,1-1.71.23A5.84,5.84,0,0,1,310.09,880.16ZM318,870.09a4.05,4.05,0,0,0-.8-2.69,2.76,2.76,0,0,0-2.26-.95,5,5,0,0,0-1.78.32,4.89,4.89,0,0,0-1.55.9l-2.18-1.73a5.7,5.7,0,0,1,2.28-1.88,7.19,7.19,0,0,1,3.14-.67,6.47,6.47,0,0,1,3.24.77,5,5,0,0,1,2.05,2.24,8.13,8.13,0,0,1,.71,3.54v11.32H318Z" transform="translate(142.31)"/><path class="cls-4" d="M327.21,863.65h3v24.77h-3Zm4.34,17.07a4.53,4.53,0,0,1-1.55-2.23l.2-3.68a4.82,4.82,0,0,0,.35,1.93,2.77,2.77,0,0,0,1,1.23,3,3,0,0,0,1.62.42,2.77,2.77,0,0,0,2.3-1,4.73,4.73,0,0,0,.81-3v-3.82a4.89,4.89,0,0,0-.81-3,2.74,2.74,0,0,0-2.3-1.07,3.09,3.09,0,0,0-1.62.41,2.64,2.64,0,0,0-1,1.2,4.66,4.66,0,0,0-.35,1.89l-.31-3.4a6,6,0,0,1,1.81-2.38,4,4,0,0,1,2.48-.84,4.57,4.57,0,0,1,2.76.84,5.16,5.16,0,0,1,1.75,2.45,11.2,11.2,0,0,1,.6,3.89v3.83a10.71,10.71,0,0,1-.61,3.84,5.18,5.18,0,0,1-1.81,2.43,4.79,4.79,0,0,1-2.84.84A4,4,0,0,1,331.55,880.72Z" transform="translate(142.31)"/><path class="cls-4" d="M348,880.6a5.78,5.78,0,0,1-2.28-2.69,10.64,10.64,0,0,1-.79-4.29v-2a11.94,11.94,0,0,1,.76-4.47,5.73,5.73,0,0,1,5.65-3.78,5,5,0,0,1,3.25,1.1,6.84,6.84,0,0,1,2.06,3.19,15.48,15.48,0,0,1,.71,5v1.15H347.07v-2.78h7.42a6.59,6.59,0,0,0-1-3.35,2.57,2.57,0,0,0-2.22-1.2,3.06,3.06,0,0,0-2.63,1.29,6.17,6.17,0,0,0-.93,3.65v2.24a5.06,5.06,0,0,0,1,3.36,3.52,3.52,0,0,0,2.83,1.17,4.23,4.23,0,0,0,1.81-.42,5.22,5.22,0,0,0,1.59-1.19l2,2.27a8.27,8.27,0,0,1-2.54,2,6.5,6.5,0,0,1-2.83.68A6.76,6.76,0,0,1,348,880.6Z" transform="translate(142.31)"/><path class="cls-4" d="M362.14,877.63h3.14v5.49l-3.14,3.77Z" transform="translate(142.31)"/><path class="cls-4" d="M384,881.21a8.49,8.49,0,0,1-4.09-2.45l1.77-2.52a9.78,9.78,0,0,0,2.45,1.62,5.73,5.73,0,0,0,2.4.55,4.52,4.52,0,0,0,2.66-.64,2.2,2.2,0,0,0,.89-1.91,1.58,1.58,0,0,0-.49-1.27,2.58,2.58,0,0,0-1.2-.57,19.48,19.48,0,0,0-2-.26h-.25a1.9,1.9,0,0,1-.25,0h-.23a10.48,10.48,0,0,1-2.51-.5,3.52,3.52,0,0,1-1.71-1.37,5.11,5.11,0,0,1-.68-2.87,6.53,6.53,0,0,1,.66-3.1,4.16,4.16,0,0,1,2-1.86,7.66,7.66,0,0,1,3.27-.62,9.87,9.87,0,0,1,2.27.26,8.92,8.92,0,0,1,2.06.75,10.54,10.54,0,0,1,1.89,1.26l-1.8,2.53a9.94,9.94,0,0,0-2.25-1.27,6.1,6.1,0,0,0-2.17-.42,3.63,3.63,0,0,0-2.28.6,2.16,2.16,0,0,0-.77,1.81A1.28,1.28,0,0,0,384,870a2.28,2.28,0,0,0,1.09.48,16.65,16.65,0,0,0,1.88.2l.18,0,.2,0h.17a11.3,11.3,0,0,1,2.72.5,3.67,3.67,0,0,1,1.89,1.47,5.67,5.67,0,0,1,.76,3.19,6.33,6.33,0,0,1-.71,3.15,4.35,4.35,0,0,1-2.11,1.87,8.8,8.8,0,0,1-3.56.63A10.26,10.26,0,0,1,384,881.21Z" transform="translate(142.31)"/><path class="cls-4" d="M397.32,863.65h6.86v3.12h-6.86Zm2.42,16.51a5.89,5.89,0,0,1-.86-3.48V858.52h3v18.19a1.92,1.92,0,0,0,.21,1,.74.74,0,0,0,.65.35h1.44v3.29h-1.73A3.12,3.12,0,0,1,399.74,880.16Z" transform="translate(142.31)"/><path class="cls-4" d="M410.74,880.16a6.7,6.7,0,0,1-.12-8,5.2,5.2,0,0,1,3.86-1.31h4.32l.21,2.78H414.5a2.34,2.34,0,0,0-1.76.6,2.63,2.63,0,0,0-.58,1.85,2.45,2.45,0,0,0,.77,2,3.61,3.61,0,0,0,2.34.65,5.94,5.94,0,0,0,2.56-.43,1.39,1.39,0,0,0,.84-1.32l.31,2.47a3.91,3.91,0,0,1-1,1.18,4.13,4.13,0,0,1-1.34.68,5.78,5.78,0,0,1-1.72.23A5.84,5.84,0,0,1,410.74,880.16Zm7.93-10.07a4.05,4.05,0,0,0-.8-2.69,2.76,2.76,0,0,0-2.26-.95,5,5,0,0,0-1.78.32,4.89,4.89,0,0,0-1.55.9l-2.18-1.73a5.7,5.7,0,0,1,2.28-1.88,7.19,7.19,0,0,1,3.14-.67,6.47,6.47,0,0,1,3.24.77,5,5,0,0,1,2.05,2.24,8.13,8.13,0,0,1,.71,3.54v11.32h-2.85Z" transform="translate(142.31)"/><path class="cls-4" d="M425.81,863.65h3.05l4.68,15.3-1.66,3.75Zm13.47,0-6.48,21.73a5.4,5.4,0,0,1-.92,1.91,3.15,3.15,0,0,1-1.41,1,6.08,6.08,0,0,1-2.05.3h-.6v-3.32h.6a2.08,2.08,0,0,0,1.33-.39,3.16,3.16,0,0,0,.85-1.34l5.63-19.9Z" transform="translate(142.31)"/><path class="cls-4" d="M453.58,856.59h3v24.67h-3Zm9.24,14a4.41,4.41,0,0,0-.84-2.88,2.84,2.84,0,0,0-2.34-1,2.94,2.94,0,0,0-2.27.88,3.61,3.61,0,0,0-.79,2.5l-.31-3.39a6,6,0,0,1,1.84-2.42,4.06,4.06,0,0,1,2.51-.86,4.45,4.45,0,0,1,3.83,1.88,8.87,8.87,0,0,1,1.36,5.3v10.69h-3Z" transform="translate(142.31)"/><path class="cls-4" d="M474.78,880.6a5.78,5.78,0,0,1-2.28-2.69,10.64,10.64,0,0,1-.78-4.29v-2a12,12,0,0,1,.75-4.47,5.73,5.73,0,0,1,5.65-3.78,5,5,0,0,1,3.26,1.1,6.92,6.92,0,0,1,2.06,3.19,15.76,15.76,0,0,1,.71,5v1.15H473.89v-2.78h7.41a6.59,6.59,0,0,0-1-3.35,2.57,2.57,0,0,0-2.22-1.2,3.06,3.06,0,0,0-2.63,1.29,6.17,6.17,0,0,0-.93,3.65v2.24a5,5,0,0,0,1,3.36,3.5,3.5,0,0,0,2.83,1.17,4.22,4.22,0,0,0,1.8-.42,5.26,5.26,0,0,0,1.6-1.19l2,2.27a8.27,8.27,0,0,1-2.54,2,6.46,6.46,0,0,1-2.82.68A6.79,6.79,0,0,1,474.78,880.6Z" transform="translate(142.31)"/><path class="cls-4" d="M490.71,880.16a6.7,6.7,0,0,1-.12-8,5.2,5.2,0,0,1,3.86-1.31h4.32l.21,2.78h-4.52a2.33,2.33,0,0,0-1.75.6,2.63,2.63,0,0,0-.58,1.85,2.45,2.45,0,0,0,.77,2,3.61,3.61,0,0,0,2.34.65,6,6,0,0,0,2.56-.43,1.39,1.39,0,0,0,.84-1.32l.31,2.47a3.91,3.91,0,0,1-1,1.18,4.09,4.09,0,0,1-1.35.68,5.66,5.66,0,0,1-1.71.23A5.84,5.84,0,0,1,490.71,880.16Zm7.93-10.07a4.05,4.05,0,0,0-.8-2.69,2.76,2.76,0,0,0-2.26-.95,5,5,0,0,0-1.78.32,4.89,4.89,0,0,0-1.55.9l-2.18-1.73a5.7,5.7,0,0,1,2.28-1.88,7.19,7.19,0,0,1,3.14-.67,6.47,6.47,0,0,1,3.24.77,5,5,0,0,1,2,2.24,8.13,8.13,0,0,1,.71,3.54v11.32h-2.85Z" transform="translate(142.31)"/><path class="cls-4" d="M510.82,876.71a1.65,1.65,0,0,0,.25,1,.78.78,0,0,0,.68.35h1.4v3.29h-1.76a3.1,3.1,0,0,1-2.63-1.22,5.56,5.56,0,0,1-.93-3.44V856.59h3Z" transform="translate(142.31)"/><path class="cls-4" d="M517.15,863.65H524v3.12h-6.86Zm2.43,16.51a5.89,5.89,0,0,1-.86-3.48V858.52h3v18.19a1.91,1.91,0,0,0,.22,1,.73.73,0,0,0,.65.35H524v3.29h-1.73A3.1,3.1,0,0,1,519.58,880.16Z" transform="translate(142.31)"/><path class="cls-4" d="M529.92,856.59h3v24.67h-3Zm9.23,14a4.41,4.41,0,0,0-.83-2.88,2.87,2.87,0,0,0-2.35-1,2.92,2.92,0,0,0-2.26.88,3.61,3.61,0,0,0-.8,2.5l-.31-3.39a6,6,0,0,1,1.84-2.42,4.11,4.11,0,0,1,2.52-.86,4.46,4.46,0,0,1,3.83,1.88,8.94,8.94,0,0,1,1.36,5.3v10.69h-3Z" transform="translate(142.31)"/><path class="cls-4" d="M546.44,863.65h3l4.67,15.3-1.65,3.75Zm13.47,0-6.48,21.73a5.4,5.4,0,0,1-.92,1.91,3.15,3.15,0,0,1-1.41,1,6.12,6.12,0,0,1-2.05.3h-.6v-3.32h.6a2.05,2.05,0,0,0,1.32-.39,3.07,3.07,0,0,0,.86-1.34l5.63-19.9Z" transform="translate(142.31)"/><text class="cls-5" transform="translate(396.14 816.39) scale(0.86 1)">FireFit</text><rect class="cls-6" x="142.31" width="720" height="1280"/><rect class="cls-6" x="142.31" width="720" height="1280"/></svg>