<svg xmlns="http://www.w3.org/2000/svg" xmlns:xlink="http://www.w3.org/1999/xlink" viewBox="0 0 584.16 544.37"><defs><style>.cls-1{fill:none;}.cls-2{fill:#8fbeff;}.cls-3{isolation:isolate;}.cls-4{clip-path:url(#clip-path);}.cls-5{fill:#4d58de;}.cls-6{fill:url(#_10_dpi_10_4);}.cls-7{fill:#a5aedb;}.cls-8{opacity:0.05;fill:url(#radial-gradient);}.cls-10,.cls-8{mix-blend-mode:multiply;}.cls-9{fill:#fff;}.cls-10{opacity:0.07;fill:url(#radial-gradient-2);}.cls-11{opacity:0.14;mix-blend-mode:screen;}.cls-12,.cls-13,.cls-14,.cls-15,.cls-16,.cls-17,.cls-18,.cls-19,.cls-20,.cls-21{opacity:0.48;}.cls-12{fill:url(#linear-gradient);}.cls-13{fill:url(#linear-gradient-2);}.cls-14{fill:url(#linear-gradient-3);}.cls-15{fill:url(#linear-gradient-4);}.cls-16{fill:url(#linear-gradient-5);}.cls-17{fill:url(#linear-gradient-6);}.cls-18{fill:url(#linear-gradient-7);}.cls-19{fill:url(#linear-gradient-8);}.cls-20{fill:url(#linear-gradient-9);}.cls-21{fill:url(#linear-gradient-10);}</style><clipPath id="clip-path" transform="translate(122.36 93.68)"><rect class="cls-1" y="-0.23" width="400" height="300.23"/></clipPath><pattern id="_10_dpi_10_4" data-name="10 dpi 10% 4" width="28.8" height="28.8" patternTransform="translate(51.4 -41.08) scale(0.53)" patternUnits="userSpaceOnUse" viewBox="0 0 28.8 28.8"><rect class="cls-1" width="28.8" height="28.8"/><circle class="cls-2" cx="28.8" cy="28.8" r="0.72"/><path class="cls-2" d="M14.4,29.52a.72.72,0,1,0-.72-.72A.72.72,0,0,0,14.4,29.52Z"/><path class="cls-2" d="M28.8,15.12a.72.72,0,1,0-.72-.72A.72.72,0,0,0,28.8,15.12Z"/><path class="cls-2" d="M14.4,15.12a.72.72,0,1,0-.72-.72A.72.72,0,0,0,14.4,15.12Z"/><path class="cls-2" d="M7.2,22.32a.72.72,0,1,0-.72-.72A.72.72,0,0,0,7.2,22.32Z"/><path class="cls-2" d="M21.6,22.32a.72.72,0,1,0-.72-.72A.72.72,0,0,0,21.6,22.32Z"/><path class="cls-2" d="M7.2,7.92a.72.72,0,1,0-.72-.72A.72.72,0,0,0,7.2,7.92Z"/><path class="cls-2" d="M21.6,7.92a.72.72,0,1,0-.72-.72A.72.72,0,0,0,21.6,7.92Z"/><circle class="cls-2" cy="28.8" r="0.72"/><path class="cls-2" d="M0,15.12a.72.72,0,0,0,0-1.44.72.72,0,0,0-.72.72A.72.72,0,0,0,0,15.12Z"/><path class="cls-2" d="M28.8.72A.72.72,0,0,0,29.52,0a.72.72,0,0,0-.72-.72.72.72,0,0,0-.72.72A.72.72,0,0,0,28.8.72Z"/><path class="cls-2" d="M14.4.72A.72.72,0,0,0,15.12,0a.72.72,0,0,0-.72-.72.72.72,0,0,0-.72.72A.72.72,0,0,0,14.4.72Z"/><path class="cls-2" d="M0,.72A.72.72,0,0,0,.72,0,.72.72,0,0,0,0-.72.72.72,0,0,0-.72,0,.72.72,0,0,0,0,.72Z"/></pattern><radialGradient id="radial-gradient" cx="123.97" cy="803.64" r="229.38" gradientTransform="matrix(1.12, -1.27, 1.44, 1.27, -936.72, -913.5)" gradientUnits="userSpaceOnUse"><stop offset="0" stop-color="#005aac"/><stop offset="0.02" stop-color="#0057a7"/><stop offset="0.24" stop-color="#013a7d"/><stop offset="0.46" stop-color="#01235b"/><stop offset="0.66" stop-color="#021243"/><stop offset="0.84" stop-color="#020834"/><stop offset="1" stop-color="#02052f"/></radialGradient><radialGradient id="radial-gradient-2" cx="-61.86" cy="80.48" r="333.67" gradientTransform="translate(243.63 451.24) rotate(74.32)" xlink:href="#radial-gradient"/><linearGradient id="linear-gradient" x1="407.94" y1="42.4" x2="288.18" y2="162.16" gradientTransform="matrix(-0.08, -1, 1, -0.08, -59.28, 597.51)" gradientUnits="userSpaceOnUse"><stop offset="0" stop-color="#fff"/><stop offset="0.03" stop-color="#ededed"/><stop offset="0.14" stop-color="#b6b7b6"/><stop offset="0.26" stop-color="#868885"/><stop offset="0.37" stop-color="#5e5f5c"/><stop offset="0.49" stop-color="#3c3f3b"/><stop offset="0.61" stop-color="#232521"/><stop offset="0.73" stop-color="#10130f"/><stop offset="0.86" stop-color="#060904"/><stop offset="1" stop-color="#020500"/></linearGradient><linearGradient id="linear-gradient-2" x1="414.27" y1="48.72" x2="294.5" y2="168.49" xlink:href="#linear-gradient"/><linearGradient id="linear-gradient-3" x1="362.29" y1="-3.26" x2="242.52" y2="116.5" xlink:href="#linear-gradient"/><linearGradient id="linear-gradient-4" x1="401.55" y1="36.01" x2="281.79" y2="155.77" xlink:href="#linear-gradient"/><linearGradient id="linear-gradient-5" x1="369.26" y1="3.71" x2="249.5" y2="123.48" xlink:href="#linear-gradient"/><linearGradient id="linear-gradient-6" x1="388.46" y1="22.92" x2="268.7" y2="142.68" xlink:href="#linear-gradient"/><linearGradient id="linear-gradient-7" x1="421.25" y1="55.7" x2="301.49" y2="175.47" xlink:href="#linear-gradient"/><linearGradient id="linear-gradient-8" x1="375.53" y1="9.99" x2="255.77" y2="129.75" xlink:href="#linear-gradient"/><linearGradient id="linear-gradient-9" x1="395.03" y1="29.49" x2="275.27" y2="149.25" xlink:href="#linear-gradient"/><linearGradient id="linear-gradient-10" x1="381.94" y1="16.39" x2="262.17" y2="136.15" xlink:href="#linear-gradient"/></defs><g class="cls-3"><g id="Layer_1" data-name="Layer 1"><g class="cls-4"><rect class="cls-5" x="122.36" y="93.68" width="400" height="300"/><path class="cls-6" d="M-108.06,127.54c7.83,16,19.26,29.83,35.27,38.57,41.45,22.64,94.51,4.06,113.33-38.89,9.27-21.17,21.74-41,41.74-53.49C110.72,56,144.52,59.66,175.13,48.64c17.52-6.31,38.73-19,42.36-38.79,7.32-39.71-46-75-76.64-87.25-37.58-15-80.36-18.53-120.4-15C-65.49-85-131.62-5.44-121.3,80.66-119.4,96.52-115.24,112.92-108.06,127.54Z" transform="translate(122.36 93.68)"/><path class="cls-7" d="M349.78,236.53a.9.9,0,1,1-.9-.89A.89.89,0,0,1,349.78,236.53Z" transform="translate(122.36 93.68)"/><path class="cls-7" d="M335.78,249a.9.9,0,1,1-.9-.9A.89.89,0,0,1,335.78,249Z" transform="translate(122.36 93.68)"/><circle class="cls-7" cx="471.24" cy="342.72" r="2.41"/><path class="cls-7" d="M363.77,249a.89.89,0,1,1-.89-.9A.89.89,0,0,1,363.77,249Z" transform="translate(122.36 93.68)"/><path class="cls-7" d="M335.78,261.55a.9.9,0,1,1-.9-.9A.89.89,0,0,1,335.78,261.55Z" transform="translate(122.36 93.68)"/><path class="cls-7" d="M349.78,261.55a.9.9,0,1,1-.9-.9A.89.89,0,0,1,349.78,261.55Z" transform="translate(122.36 93.68)"/><path class="cls-7" d="M363.77,261.55a.89.89,0,1,1-.89-.9A.89.89,0,0,1,363.77,261.55Z" transform="translate(122.36 93.68)"/><circle class="cls-7" cx="443.25" cy="367.73" r="0.89"/><path class="cls-7" d="M335.78,274.06a.9.9,0,1,1-.9-.9A.89.89,0,0,1,335.78,274.06Z" transform="translate(122.36 93.68)"/><path class="cls-7" d="M349.78,274.06a.9.9,0,1,1-.9-.9A.89.89,0,0,1,349.78,274.06Z" transform="translate(122.36 93.68)"/><circle class="cls-7" cx="485.24" cy="367.73" r="1.98"/><circle class="cls-7" cx="499.24" cy="367.73" r="0.89"/><path class="cls-7" d="M321.78,286.56a.9.9,0,1,1-.89-.89A.89.89,0,0,1,321.78,286.56Z" transform="translate(122.36 93.68)"/><path class="cls-7" d="M336.72,286.56a1.84,1.84,0,1,1-1.84-1.83A1.84,1.84,0,0,1,336.72,286.56Z" transform="translate(122.36 93.68)"/><path class="cls-7" d="M349.78,286.56a.9.9,0,1,1-.9-.89A.9.9,0,0,1,349.78,286.56Z" transform="translate(122.36 93.68)"/><path class="cls-7" d="M363.77,286.56a.89.89,0,1,1-.89-.89A.89.89,0,0,1,363.77,286.56Z" transform="translate(122.36 93.68)"/><path class="cls-7" d="M377.77,286.56a.9.9,0,1,1-.89-.89A.89.89,0,0,1,377.77,286.56Z" transform="translate(122.36 93.68)"/><circle class="cls-7" cx="429.25" cy="392.75" r="2.3"/><circle class="cls-7" cx="443.25" cy="392.75" r="0.89"/><path class="cls-7" d="M335.78,299.07a.9.9,0,1,1-.9-.89A.9.9,0,0,1,335.78,299.07Z" transform="translate(122.36 93.68)"/><path class="cls-7" d="M352,299.07a3.08,3.08,0,1,1-3.08-3.08A3.07,3.07,0,0,1,352,299.07Z" transform="translate(122.36 93.68)"/><path class="cls-7" d="M363.77,299.07a.89.89,0,1,1-.89-.89A.89.89,0,0,1,363.77,299.07Z" transform="translate(122.36 93.68)"/><circle class="cls-7" cx="499.24" cy="392.75" r="0.89"/><path class="cls-7" d="M392.72,299.07a1.85,1.85,0,1,1-1.84-1.84A1.85,1.85,0,0,1,392.72,299.07Z" transform="translate(122.36 93.68)"/><circle class="cls-7" cx="429.25" cy="405.26" r="0.89"/><path class="cls-7" d="M322.62,311.58a1.73,1.73,0,1,1-1.73-1.73A1.73,1.73,0,0,1,322.62,311.58Z" transform="translate(122.36 93.68)"/><path class="cls-7" d="M335.78,311.58a.9.9,0,1,1-.9-.89A.9.9,0,0,1,335.78,311.58Z" transform="translate(122.36 93.68)"/><path class="cls-7" d="M349.78,311.58a.9.9,0,1,1-.9-.89A.9.9,0,0,1,349.78,311.58Z" transform="translate(122.36 93.68)"/><path class="cls-7" d="M363.77,311.58a.89.89,0,1,1-.89-.89A.89.89,0,0,1,363.77,311.58Z" transform="translate(122.36 93.68)"/><circle class="cls-7" cx="499.24" cy="405.26" r="0.89"/><circle class="cls-7" cx="513.24" cy="405.26" r="0.89"/><circle class="cls-7" cx="415.25" cy="417.77" r="1.43"/><circle class="cls-7" cx="429.25" cy="417.77" r="0.89"/><circle class="cls-7" cx="443.25" cy="417.77" r="0.89"/><path class="cls-7" d="M335.78,324.09a.9.9,0,1,1-.9-.89A.89.89,0,0,1,335.78,324.09Z" transform="translate(122.36 93.68)"/><path class="cls-7" d="M349.78,324.09a.9.9,0,1,1-.9-.89A.89.89,0,0,1,349.78,324.09Z" transform="translate(122.36 93.68)"/><circle class="cls-7" cx="485.24" cy="417.77" r="2.23"/><circle class="cls-7" cx="499.24" cy="417.77" r="0.89"/><circle class="cls-7" cx="513.24" cy="417.77" r="0.89"/><path class="cls-7" d="M406.53,324.09a1.66,1.66,0,1,1-1.66-1.66A1.66,1.66,0,0,1,406.53,324.09Z" transform="translate(122.36 93.68)"/><circle class="cls-7" cx="415.25" cy="430.28" r="0.89"/><circle class="cls-7" cx="429.25" cy="430.28" r="0.89"/><circle class="cls-7" cx="443.25" cy="430.28" r="0.89"/><path class="cls-7" d="M335.78,336.6a.9.9,0,1,1-.9-.89A.89.89,0,0,1,335.78,336.6Z" transform="translate(122.36 93.68)"/><path class="cls-7" d="M349.78,336.6a.9.9,0,1,1-.9-.89A.89.89,0,0,1,349.78,336.6Z" transform="translate(122.36 93.68)"/><path class="cls-7" d="M363.77,336.6a.89.89,0,1,1-.89-.89A.89.89,0,0,1,363.77,336.6Z" transform="translate(122.36 93.68)"/><path class="cls-7" d="M378.16,336.6a1.28,1.28,0,1,1-1.28-1.28A1.28,1.28,0,0,1,378.16,336.6Z" transform="translate(122.36 93.68)"/><circle class="cls-7" cx="513.24" cy="430.28" r="0.89"/><path class="cls-7" d="M405.77,336.6a.9.9,0,1,1-.9-.89A.89.89,0,0,1,405.77,336.6Z" transform="translate(122.36 93.68)"/><path class="cls-8" d="M381.72-51.38c-14.44-12.76-33-17.29-49.09-13.59-7.8,1.8-16.35.3-23.89-3.93-20.9-11.74-46.37-9.44-61.4,7.1-17.92,19.74-14.27,51.89,8.19,72,16.06,14.36,37.32,18.45,54.56,12.29a14.94,14.94,0,0,1,13.47,2.17l.18.12c5.64,4,8.15,11,6.06,16.82-8.88,24.8-.74,55.39,22.46,75.92,29.39,26,72.13,26,95.14,0s17.86-68.35-11.61-94.39a81.07,81.07,0,0,0-7.26-5.73,74.85,74.85,0,0,1-29-40.81A58.67,58.67,0,0,0,381.72-51.38Z" transform="translate(122.36 93.68)"/><circle class="cls-9" cx="442.65" cy="41.4" r="2.29"/><circle class="cls-9" cx="442.65" cy="56.5" r="2.29"/><circle class="cls-9" cx="442.65" cy="71.6" r="2.29"/><circle class="cls-9" cx="442.65" cy="86.69" r="2.29"/><circle class="cls-9" cx="442.65" cy="101.79" r="2.29"/><path class="cls-9" d="M322.57,23.21a2.29,2.29,0,1,1-2.28-2.28A2.28,2.28,0,0,1,322.57,23.21Z" transform="translate(122.36 93.68)"/><path class="cls-9" d="M322.57,38.31A2.29,2.29,0,1,1,320.29,36,2.29,2.29,0,0,1,322.57,38.31Z" transform="translate(122.36 93.68)"/><circle class="cls-9" cx="460.58" cy="41.4" r="2.29"/><circle class="cls-9" cx="460.58" cy="56.5" r="2.29"/><circle class="cls-9" cx="460.58" cy="71.6" r="2.29"/><circle class="cls-9" cx="460.58" cy="86.69" r="2.29"/><circle class="cls-9" cx="460.58" cy="101.79" r="2.29"/><path class="cls-9" d="M340.5,23.21a2.29,2.29,0,1,1-2.28-2.28A2.28,2.28,0,0,1,340.5,23.21Z" transform="translate(122.36 93.68)"/><path class="cls-9" d="M340.5,38.31A2.29,2.29,0,1,1,338.22,36,2.29,2.29,0,0,1,340.5,38.31Z" transform="translate(122.36 93.68)"/><circle class="cls-9" cx="478.51" cy="41.4" r="2.29"/><circle class="cls-9" cx="478.51" cy="56.5" r="2.29"/><circle class="cls-9" cx="478.51" cy="71.6" r="2.29"/><circle class="cls-9" cx="478.51" cy="86.69" r="2.29"/><circle class="cls-9" cx="478.51" cy="101.79" r="2.29"/><path class="cls-9" d="M358.44,23.21a2.29,2.29,0,1,1-2.29-2.28A2.29,2.29,0,0,1,358.44,23.21Z" transform="translate(122.36 93.68)"/><path class="cls-9" d="M358.44,38.31A2.29,2.29,0,1,1,356.15,36,2.3,2.3,0,0,1,358.44,38.31Z" transform="translate(122.36 93.68)"/><circle class="cls-9" cx="496.44" cy="41.4" r="2.29"/><circle class="cls-9" cx="496.44" cy="56.5" r="2.29"/><circle class="cls-9" cx="496.44" cy="71.6" r="2.29"/><circle class="cls-9" cx="496.44" cy="86.69" r="2.29"/><circle class="cls-9" cx="496.44" cy="101.79" r="2.29"/><path class="cls-9" d="M376.37,23.21a2.29,2.29,0,1,1-2.29-2.28A2.29,2.29,0,0,1,376.37,23.21Z" transform="translate(122.36 93.68)"/><path class="cls-9" d="M376.37,38.31A2.29,2.29,0,1,1,374.08,36,2.3,2.3,0,0,1,376.37,38.31Z" transform="translate(122.36 93.68)"/><circle class="cls-9" cx="514.37" cy="41.4" r="2.29"/><circle class="cls-9" cx="514.37" cy="56.5" r="2.29"/><circle class="cls-9" cx="514.37" cy="71.6" r="2.29"/><circle class="cls-9" cx="514.37" cy="86.69" r="2.29"/><circle class="cls-9" cx="514.37" cy="101.79" r="2.29"/><path class="cls-9" d="M394.3,23.21A2.29,2.29,0,1,1,392,20.93,2.29,2.29,0,0,1,394.3,23.21Z" transform="translate(122.36 93.68)"/><path class="cls-9" d="M394.3,38.31A2.29,2.29,0,1,1,392,36,2.3,2.3,0,0,1,394.3,38.31Z" transform="translate(122.36 93.68)"/><circle class="cls-9" cx="532.3" cy="41.4" r="2.29"/><circle class="cls-9" cx="532.3" cy="56.5" r="2.29"/><circle class="cls-9" cx="532.3" cy="71.6" r="2.29"/><circle class="cls-9" cx="532.3" cy="86.69" r="2.29"/><circle class="cls-9" cx="532.3" cy="101.79" r="2.29"/><path class="cls-9" d="M412.23,23.21a2.29,2.29,0,1,1-2.29-2.28A2.29,2.29,0,0,1,412.23,23.21Z" transform="translate(122.36 93.68)"/><path class="cls-9" d="M412.23,38.31A2.29,2.29,0,1,1,409.94,36,2.3,2.3,0,0,1,412.23,38.31Z" transform="translate(122.36 93.68)"/><path class="cls-10" d="M194.28,329.16a95.84,95.84,0,0,0-83.81-69.72,166.73,166.73,0,0,1-55.35-14.89,54.46,54.46,0,0,0-37.78-3A55,55,0,0,0-20,310.6a54.49,54.49,0,0,0,6,12.92,171.23,171.23,0,0,1,22.68,53c.33,1.43.69,2.86,1.1,4.29a95.79,95.79,0,0,0,184.49-51.61ZM25.93,366.11A20.9,20.9,0,1,1,51.7,380.58,20.89,20.89,0,0,1,25.93,366.11Z" transform="translate(122.36 93.68)"/><g class="cls-11"><path class="cls-12" d="M33.76,312.21a65.56,65.56,0,0,0,7.31-5.72L32.82,204.14a64.8,64.8,0,0,0-8.13-4.48Z" transform="translate(122.36 93.68)"/><path class="cls-13" d="M46.83,300.56a64.85,64.85,0,0,0,7-9.87l-5.88-73a65.25,65.25,0,0,0-8.47-8.64Z" transform="translate(122.36 93.68)"/><path class="cls-14" d="M-62.74,235.19a64.52,64.52,0,0,0-4.11,28.49,64.5,64.5,0,0,0,8.62,27.46Z" transform="translate(122.36 93.68)"/><path class="cls-15" d="M20.31,319.13a65.65,65.65,0,0,0,7.5-3.36L18.24,197.1A62.22,62.22,0,0,0,10.3,195Z" transform="translate(122.36 93.68)"/><path class="cls-16" d="M-42.78,309l-7.57-93.92a65.8,65.8,0,0,0-7,9.33l6.17,76.51A65,65,0,0,0-42.78,309Z" transform="translate(122.36 93.68)"/><path class="cls-17" d="M-7.4,323a67.11,67.11,0,0,0,7.78.13L-10,194.22a66.1,66.1,0,0,0-7.65,1.37Z" transform="translate(122.36 93.68)"/><path class="cls-18" d="M59.09,278.91a64.35,64.35,0,0,0,3.08-25.63A64.57,64.57,0,0,0,55,228.48Z" transform="translate(122.36 93.68)"/><path class="cls-19" d="M-36.17,313.65a64.33,64.33,0,0,0,8.11,4.23L-37.24,204a67.76,67.76,0,0,0-7.33,5.47Z" transform="translate(122.36 93.68)"/><path class="cls-20" d="M6.58,322.58a65.76,65.76,0,0,0,7.64-1.52L4,194.06a62.9,62.9,0,0,0-7.79-.28Z" transform="translate(122.36 93.68)"/><path class="cls-21" d="M-21.63,320.27a64.15,64.15,0,0,0,7.93,1.94L-23.76,197.39a64.79,64.79,0,0,0-7.51,3.18Z" transform="translate(122.36 93.68)"/></g></g></g></g></svg>